<svg width="110" height="46" viewBox="0 0 110 46" fill="none" xmlns="http://www.w3.org/2000/svg">
<g clip-path="url(#clip0_140_396)">
<path d="M8.40571 38.8892C7.19483 38.8892 6.25147 38.6921 5.57563 38.2979C4.92795 37.9036 4.47739 37.3545 4.22395 36.6505C3.97051 35.9183 3.84379 35.1017 3.84379 34.2006V20.0924H0.549072V18.2761L3.84379 17.3891L4.85755 12.9961H7.30747V17.8115H13.2633V18.9942L12.6719 20.0924H7.30747V33.9049C7.30747 34.7779 7.47643 35.3551 7.81435 35.6367C8.18043 35.8902 8.71547 36.0169 9.41945 36.0169C10.2079 36.0169 10.926 35.9465 11.5737 35.8057C12.2214 35.6367 12.6297 35.5241 12.7987 35.4678L13.2211 36.8195C12.5452 37.439 11.7567 37.9459 10.8556 38.3401C9.95449 38.7062 9.13785 38.8892 8.40571 38.8892Z" fill="#194A33"/>
<path d="M23.5723 39.1003C21.4885 39.1003 19.7707 38.6638 18.419 37.7908C17.0674 36.8897 16.0677 35.6648 15.42 34.116C14.7723 32.5672 14.4485 30.8212 14.4485 28.8782C14.4485 26.5691 14.8427 24.5556 15.6312 22.8379C16.4478 21.1201 17.5602 19.7966 18.9682 18.8673C20.4043 17.9099 22.0517 17.4312 23.9102 17.4312C25.1493 17.4312 26.2053 17.6424 27.0782 18.0648C27.9512 18.4872 28.6552 19.0644 29.1902 19.7966C29.7534 20.5288 30.1618 21.3595 30.4152 22.2888C30.6968 23.1899 30.8376 24.1332 30.8376 25.1188C30.8376 26.6395 30.6968 27.6532 30.4152 28.1601C30.1336 28.6388 29.5986 28.8782 28.8101 28.8782H18.2078C18.2078 30.2017 18.419 31.4126 18.8414 32.5108C19.2638 33.6091 19.9538 34.4961 20.9112 35.172C21.8968 35.8196 23.2062 36.1435 24.8395 36.1435C26.3883 36.1435 27.5851 35.9886 28.4299 35.6788C29.3029 35.3691 29.7957 35.186 29.9083 35.1297L30.4997 36.3124C30.4152 36.3969 30.0773 36.6644 29.4859 37.115C28.9227 37.5655 28.1342 38.0161 27.1205 38.4667C26.1349 38.8891 24.9522 39.1003 23.5723 39.1003ZM18.2501 26.9352L27.2894 26.5972C27.3739 26.0904 27.4162 25.5272 27.4162 24.9076C27.4162 23.3025 27.1346 22.0635 26.5714 21.1905C26.0082 20.3176 24.924 19.8811 23.3189 19.8811C22.1643 19.8811 21.2069 20.1627 20.4466 20.7259C19.7144 21.2609 19.1653 22.0635 18.7992 23.1336C18.4613 24.1755 18.2782 25.4427 18.2501 26.9352Z" fill="#194A33"/>
<path d="M39.0464 39.0158C37.6102 39.0158 36.4557 38.7764 35.5827 38.2977C34.7379 37.819 34.1184 37.1854 33.7242 36.3969C33.3581 35.5803 33.175 34.7073 33.175 33.778C33.175 32.5953 33.4426 31.5675 33.9776 30.6945C34.5408 29.8216 35.3856 29.1035 36.512 28.5403C37.6384 27.9771 39.0464 27.5969 40.736 27.3998L44.5376 26.8507V23.6827C44.5376 22.866 44.3686 22.1902 44.0307 21.6552C43.721 21.1201 43.2563 20.74 42.6368 20.5147C42.0454 20.2612 41.2992 20.1345 40.3981 20.1345C39.6941 20.1345 39.1027 20.1908 38.624 20.3035C38.1453 20.388 37.8637 20.4443 37.7792 20.4724L37.1456 24.3585C37.1174 24.3867 37.0048 24.443 36.8077 24.5275C36.6106 24.612 36.2726 24.6542 35.7939 24.6542C35.3152 24.6542 34.8646 24.4852 34.4422 24.1473C34.048 23.7812 33.8509 23.3025 33.8509 22.7112C33.8509 21.8382 34.1747 21.0638 34.8224 20.388C35.4982 19.7121 36.3149 19.163 37.2723 18.7406C38.2298 18.29 39.1872 17.9662 40.1446 17.7691C41.1021 17.5438 41.8765 17.4312 42.4678 17.4312C43.6787 17.4312 44.6925 17.6564 45.5091 18.107C46.3258 18.5294 46.9453 19.1067 47.3677 19.8388C47.7901 20.571 48.0013 21.3876 48.0013 22.2888V35.8478L51.0003 36.4392V38.0443C50.9158 38.0724 50.6906 38.1569 50.3245 38.2977C49.9866 38.4385 49.5219 38.5793 48.9306 38.7201C48.3674 38.8328 47.7056 38.8891 46.9453 38.8891C46.1568 38.8891 45.6077 38.6779 45.2979 38.2555C45.0163 37.8331 44.8474 37.3966 44.791 36.946H44.6221C44.1997 37.284 43.6928 37.6078 43.1014 37.9176C42.5382 38.2273 41.9187 38.4948 41.2429 38.7201C40.567 38.9172 39.8349 39.0158 39.0464 39.0158ZM40.736 36.3547C41.8061 36.3547 42.7072 36.228 43.4394 35.9745C44.1715 35.6929 44.5376 35.5521 44.5376 35.5521V28.8782C42.7917 28.9908 41.3555 29.2161 40.2291 29.554C39.1027 29.892 38.2579 30.3566 37.6947 30.948C37.1597 31.5112 36.8922 32.2433 36.8922 33.1444C36.8922 35.2846 38.1734 36.3547 40.736 36.3547Z" fill="#194A33"/>
<path d="M52.1678 45.6897V43.9156L55.0823 43.3243V21.3595L51.7031 20.7681V19.0363L57.9969 17.8536L58.4193 19.5009L58.5038 19.5854C59.1796 19.0222 60.0666 18.5294 61.1649 18.107C62.2913 17.6564 63.3754 17.4312 64.4174 17.4312C66.9236 17.4312 68.8385 18.2619 70.162 19.9233C71.5137 21.5566 72.1895 23.9502 72.1895 27.1041C72.1895 29.4414 71.7953 31.483 71.0068 33.2289C70.2465 34.9748 69.1764 36.3265 67.7966 37.284C66.4167 38.2414 64.7975 38.7201 62.939 38.7201C62.1786 38.7201 61.3902 38.5934 60.5735 38.34C59.785 38.0584 59.081 37.6923 58.4615 37.2417V37.4952L58.546 37.9176V43.3243L62.1786 43.8312V45.6897H52.1678ZM62.7278 36.2702C64.7271 36.2702 66.1633 35.6225 67.0362 34.3272C67.9374 33.0318 68.3879 31.0043 68.3879 28.2446C68.3879 25.4286 67.9655 23.4152 67.1207 22.2043C66.2759 20.9934 64.8679 20.388 62.8967 20.388C62.1364 20.388 61.4042 20.4443 60.7002 20.5569C59.9962 20.6414 59.2782 20.7963 58.546 21.0216V35.3409C59.0529 35.6507 59.6865 35.89 60.4468 36.059C61.2353 36.1998 61.9956 36.2702 62.7278 36.2702Z" fill="#194A33"/>
<path d="M82.4725 39.1003C80.5013 39.1003 78.8539 38.6779 77.5304 37.8331C76.2069 36.9883 75.2072 35.7774 74.5313 34.2004C73.8837 32.6235 73.5598 30.7508 73.5598 28.5825C73.5598 27.0619 73.771 25.6398 74.1934 24.3163C74.644 22.9646 75.2776 21.7819 76.0942 20.7681C76.939 19.7262 77.9528 18.9096 79.1356 18.3182C80.3465 17.7268 81.6981 17.4312 83.1905 17.4312C85.2181 17.4312 86.9077 17.8536 88.2597 18.6984C89.6114 19.515 90.611 20.6836 91.2587 22.2043C91.9346 23.7249 92.2725 25.5272 92.2725 27.611C92.2725 29.2443 92.0613 30.7649 91.6389 32.1729C91.2446 33.5528 90.6392 34.7636 89.8226 35.8056C89.0059 36.8475 87.9777 37.6641 86.7388 38.2555C85.5279 38.8187 84.1058 39.1003 82.4725 39.1003ZM83.275 36.6504C84.6267 36.6504 85.6828 36.3265 86.4431 35.6788C87.2034 35.003 87.7385 34.0456 88.0485 32.8065C88.3582 31.5675 88.5131 30.0891 88.5131 28.3713C88.5131 26.4001 88.3442 24.795 88.0063 23.556C87.668 22.2888 87.1049 21.3595 86.3163 20.7681C85.5278 20.1768 84.4156 19.8811 82.9793 19.8811C81.4024 19.8811 80.2056 20.2049 79.3889 20.8526C78.5723 21.4721 78.0233 22.4155 77.7417 23.6827C77.4881 24.9217 77.3614 26.4846 77.3614 28.3713C77.3614 30.1172 77.5304 31.6097 77.8683 32.8488C78.2063 34.0878 78.7976 35.0312 79.6424 35.6788C80.5153 36.3265 81.7262 36.6504 83.275 36.6504Z" fill="#194A33"/>
<path d="M93.4648 38.7201V36.8193L104.996 20.5569V20.1345H96.9285L96.3372 23.5559H94.5208L93.9717 17.8535H109.389V20.0922L98.069 36.0167V36.4391H107.108L107.7 32.9332H109.516L109.981 38.7201H93.4648Z" fill="#194A33"/>
<path fill-rule="evenodd" clip-rule="evenodd" d="M22.0818 12.2866C18.7633 8.58267 17.2336 3.94128 17.6743 0.0256098C21.3821 -0.243427 25.6733 1.61314 28.9919 5.31708C32.3104 9.02141 33.8401 13.6624 33.3994 17.5785C33.2663 17.5883 33.132 17.5948 32.9975 17.5989C32.2102 16.3077 31.4003 15.0741 30.5759 13.9053C30.7244 12.4971 30.698 11.0715 30.6494 9.60564C30.542 10.9065 30.4741 12.236 30.2596 13.4611C29.1049 11.8541 27.9248 10.3752 26.7429 9.04367C26.661 8.20738 26.4713 7.38635 26.2635 6.5445C26.3585 7.29464 26.4791 8.05551 26.5046 8.77723C24.9352 7.03578 23.3648 5.5562 21.8486 4.38379C22.7414 5.15493 23.647 6.0248 24.5557 6.98497C23.9973 7.06013 23.3972 7.0611 22.8086 7.08236C23.4582 7.14338 24.0906 7.19257 24.7196 7.15921C25.9433 8.46683 27.1704 9.93687 28.3753 11.5484C27.3408 11.5328 26.2429 11.3487 25.1612 11.2084C26.3361 11.5198 27.4814 11.8025 28.6467 11.9145C29.93 13.6587 31.186 15.5625 32.3822 17.6C28.9244 17.4962 25.1006 15.6562 22.0818 12.2866ZM42.0796 13.3713C44.7542 10.4458 46.0205 6.77015 45.7156 3.66264C42.7776 3.43571 39.3528 4.89202 36.6783 7.81755C35.4402 9.17233 34.5038 10.6876 33.8852 12.2331C34.089 13.6221 34.1618 15.0321 34.0754 16.4318C34.4863 15.8093 34.9026 15.2061 35.3236 14.6231C35.2217 13.5055 35.2589 12.375 35.3145 11.2121C35.3851 12.2446 35.4233 13.2992 35.5795 14.2717C36.5139 13.0015 37.4665 11.8327 38.4192 10.781C38.4937 10.1176 38.6535 9.46722 38.8282 8.80044C38.7446 9.39532 38.6401 9.99821 38.6115 10.5706C39.8762 9.19547 41.1387 8.02737 42.3547 7.10298C41.6377 7.7112 40.9094 8.39774 40.1778 9.15622C40.6198 9.21774 41.0957 9.2209 41.5626 9.24018C41.0466 9.28629 40.5444 9.3229 40.046 9.29377C39.0606 10.3263 38.0704 11.4878 37.0961 12.7616C37.9169 12.7533 38.7898 12.6111 39.6492 12.5039C38.714 12.7467 37.8018 12.9668 36.8765 13.0509C35.8926 14.3577 34.927 15.7784 34.0014 17.295C33.9995 17.3119 33.9976 17.3288 33.9957 17.3457L33.9736 17.5423C36.6854 17.4343 39.6835 15.9928 42.0796 13.3713Z" fill="#8CBC4F"/>
</g>
<defs>
<clipPath id="clip0_140_396">
<rect width="110" height="45.76" fill="white"/>
</clipPath>
</defs>
</svg>
